PathFileType	4	(X/Y/Z)	RBDS011\RBDS011runT45.trc
DataRate	CameraRate	NumFrames	NumMarkers	Units	OrigDataRate	OrigDataStartFrame	OrigNumFrames
150.000000	150.000000	6	33	mm	150.000000	1125	4500
Frame#	Time	L.ASIS			L.Heel.Bottom			L.Heel.Lateral			L.Heel.Top			L.Iliac.Crest			L.MT1			L.MT5			L.PSIS			L.Shank.Bottom.Lateral			L.Shank.Bottom.Medial			L.Shank.Top.Lateral			L.Shank.Top.Medial			L.Thigh.Bottom.Lateral			L.Thigh.Bottom.Medial			L.Thigh.Top.Lateral			L.Thigh.Top.Medial			R.ASIS			R.ASY			R.Heel.Bottom			R.Heel.Lateral			R.Heel.Top			R.Iliac.Crest			R.MT1			R.MT5			R.PSIS			R.Shank.Bottom.Lateral			R.Shank.Bottom.Medial			R.Shank.Top.Lateral			R.Shank.Top.Medial			R.Thigh.Bottom.Lateral			R.Thigh.Bottom.Medial			R.Thigh.Top.Lateral			R.Thigh.Top.Medial			
		X1	Y1	Z1	X2	Y2	Z2	X3	Y3	Z3	X4	Y4	Z4	X5	Y5	Z5	X6	Y6	Z6	X7	Y7	Z7	X8	Y8	Z8	X9	Y9	Z9	X10	Y10	Z10	X11	Y11	Z11	X12	Y12	Z12	X13	Y13	Z13	X14	Y14	Z14	X15	Y15	Z15	X16	Y16	Z16	X17	Y17	Z17	X18	Y18	Z18	X19	Y19	Z19	X20	Y20	Z20	X21	Y21	Z21	X22	Y22	Z22	X23	Y23	Z23	X24	Y24	Z24	X25	Y25	Z25	X26	Y26	Z26	X27	Y27	Z27	X28	Y28	Z28	X29	Y29	Z29	X30	Y30	Z30	X31	Y31	Z31	X32	Y32	Z32	X33	Y33	Z33	

1126	7.500000000000001	2428.576295139212	987.6680117924298	929.3335481666539	1728.441940801138	502.3238019679409	1003.524909793296	1732.123529792366	470.0059106681923	968.3765099818326	1773.45542797268	484.4335846824542	1003.086167375565	2395.810354631901	1083.343837707844	903.3631358551264	1713.251526899958	285.8434234218021	1074.193201778019	1692.380387086793	300.7261276313471	962.071826439393	2270.766781264631	1053.601751764897	997.9880519070379	1848.629075786317	445.3848454467187	949.7216462412673	1839.917456234064	482.4644943239634	990.4034579314572	1921.607227078691	476.9425488299687	937.8010919932603	1913.586774300212	513.795349054511	976.3433615958065	2228.668880037714	622.1297971699694	909.0633933289427	2171.833760285794	643.3956691235119	949.5102662052724	2250.399039264268	728.75528283936	890.3348833766466	2198.077934258621	748.9048655811914	930.8091730884405	2429.226755163541	1008.68036205825	1164.76731122714	2777.127972759887	189.360672480322	1112.890687228074	2646.862224752621	46.8283842805832	1113.941204379483	2666.273191542498	71.91293416691992	1155.206493622192	2631.10368559709	94.89525481836482	1121.88415105952	2380.167331561892	1078.246465710796	1205.565029027694	2830.769131577631	171.4960419698477	1050.495861926106	2831.084709529721	138.1766799483269	1164.91874614945	2265.683007570196	1059.015022340777	1100.128510417248	2638.22249746653	204.6899120004884	1171.848706484794	2602.537800077113	201.6219461379715	1134.097932937887	2607.053712613151	281.2324765661664	1191.640497315077	2570.098340264431	273.2305783174787	1153.601600153596	2492.592159939453	647.81758329766	1225.688636832164	2439.671112179947	621.614112859541	1181.984996153434	2433.255521681989	738.4476172952021	1240.099744930379	2381.333997204661	714.083353616851	1201.675596296566	
1127	7.506666666666667	2429.596341004198	986.1718377710579	930.1658540221873	1739.59131621786	522.984250401764	1006.177052294311	1741.28852929811	490.6624079745268	970.8248174011408	1783.457492186463	502.5433253655428	1005.313448506401	2394.498613659268	1081.435079792412	903.2464925884206	1712.214750895324	307.8547398674452	1076.062349343755	1691.916199253771	324.2802761309189	964.0393493623126	2270.855154101584	1049.758353682287	997.9501880020193	1855.780116597151	458.8628729291851	951.2683276592662	1849.420518637586	496.6382581957938	991.7323102650871	1930.445811283228	485.8813044525568	938.7143653401897	1924.765171935155	523.3350073672982	977.0668374005068	2236.896513673564	616.0680166508758	907.8407397395911	2179.925272554461	635.6969762010501	948.8195034774982	2255.740907458271	723.2784519416414	889.5923199756475	2203.131312563351	741.9922579128124	930.405297772979	2428.122188696083	1006.980759515819	1166.789736571902	2770.538402236288	183.2482975326472	1114.522178749603	2638.928247253636	42.83168819234373	1114.992789995537	2658.36901686212	67.61461737113302	1156.391981124533	2623.874013957544	90.91662994541572	1122.866282370072	2377.497634657584	1074.972028792918	1206.940587525837	2823.981779630378	164.516999640091	1052.441657689593	2823.402157832336	131.6639051069727	1166.709994008441	2264.945312046836	1054.879173395209	1099.948243562345	2632.024905626346	199.9975308988938	1173.060282976049	2596.258318832539	196.9357212761388	1135.423515676583	2601.48503591492	276.8292410055465	1192.583125543632	2564.33807088102	268.8316873388497	1154.689315684289	2489.142373642685	643.8625952982858	1224.966644103913	2436.038966257108	618.1551390614211	1181.163695531255	2430.690537261215	735.0569497583839	1239.40356360292	2378.4465102221	711.1617870842333	1201.183597156753	
1128	7.513333333333334	2430.608297365743	984.187655140272	931.0880734722754	1752.960467816663	542.4751052389429	1009.101824697193	1752.800581025236	510.439203700791	973.2949606210042	1795.650775789112	519.5809476352731	1007.652123967835	2393.68202752676	1078.845624472908	903.0350692838242	1713.61945566482	328.8023855921864	1077.177963545719	1694.191620587214	347.2498389656227	965.3268531140341	2270.999961263726	1045.290838189804	997.8561788428495	1864.846517557693	471.6600709248613	952.6954010915302	1860.855486256437	509.7948864616482	993.0472052804508	1940.870232295234	494.1608508923811	939.5498958335304	1937.523118832672	531.8912755680431	977.8172770758098	2245.060485271096	609.8482995103755	906.5211037216982	2188.187115878958	627.6701752722439	948.3685657521996	2260.913409513122	717.6092898865747	889.0049771041789	2208.285965758168	734.7163484537997	930.4571642515843	2427.039582017782	1005.057865796862	1168.930884002424	2761.184373176807	174.9900877425958	1116.400193786109	2626.675806596584	38.72552589260098	1115.488923469077	2646.164499406214	62.92536584254817	1157.132059932901	2613.035209734874	86.92223496896487	1123.144384228317	2374.800805567996	1071.420593324772	1208.291226763686	2814.464817123192	154.6095188269384	1055.066801807062	2811.851484892214	122.6119993001708	1169.13600223399	2264.317454870888	1050.180931058694	1099.703743968431	2623.200545032289	194.516155380434	1173.941004226545	2587.441313452559	191.8595407389954	1136.3574607514	2593.996364284375	271.8826536248581	1193.23825438951	2556.697795522593	264.2953925321356	1155.419813061299	2486.377512275039	639.8721200010311	1224.06521459046	2432.985247533553	614.4226165150009	1180.483507121005	2428.693883791484	731.567030193386	1238.481976896539	2376.056540177127	707.916202740073	1200.75333363947	
1129	7.52	2431.581240661412	981.6988134244023	932.0996486775581	1768.234677453755	560.5516652353343	1012.261521440941	1766.399729384322	529.0659546073068	975.7617575924356	1809.753069249609	535.3530664210837	1010.103121442282	2393.422652752743	1075.599814239011	902.7848493864228	1717.416236069535	348.3668419706823	1077.505711191977	1699.173784344603	369.2470489880275	965.9011806287554	2271.168435808587	1040.279170234776	997.6896356031914	1875.682118774466	483.6090483582005	953.9745633521435	1874.046134268352	521.7817134536349	994.3268758639322	1952.752680851713	501.6741314140876	940.2821336923266	1951.700865781616	539.374965912618	978.563727803613	2253.181711530739	603.4908659732262	905.1219111024259	2196.617409139712	619.3547793383153	948.1228586721101	2265.95702182919	711.7556392031466	888.5669431814471	2213.550419336072	727.1015087341627	930.9084766092615	2425.996783755147	1002.848363653213	1171.129718284592	2749.301362918358	164.9765610114891	1118.273394764572	2610.533817889563	34.74418862850457	1115.495989904283	2630.14570572065	58.11436623185218	1157.44230786818	2598.959019359975	83.11594790027694	1122.784174465656	2372.179153856265	1067.610952059574	1209.569049138294	2802.37102876992	142.2781067725619	1058.023683189605	2796.861319397874	111.543936565224	1171.920983071817	2263.779364725638	1045.014732974242	1099.40604671379	2612.071594286292	188.4344881365406	1174.462657934279	2576.370372496709	186.5740132905943	1136.907514137217	2584.870455815589	266.5217655924968	1193.613930247418	2547.434129134828	259.7467857958747	1155.83811170043	2484.261489919531	635.8248838349086	1223.169382908641	2430.51743462697	610.4398379818895	1180.035638405159	2427.20489806131	727.9451647686318	1237.530376053961	2374.147722029132	704.3545754610454	1200.46941723255	
1130	7.526666666666667	2432.475620152108	978.694423611513	933.1942087436025	1785.050689478672	577.0065398496683	1015.577560966272	1781.773524985816	546.2853104654844	978.1860016701814	1825.435229478512	549.7043521078911	1012.648070578972	2393.733484804583	1071.727570243006	902.5557344442922	1723.514859860814	366.2795700231441	1077.076447918302	1706.771579891589	389.8837731713227	965.7793814891916	2271.308546620738	1034.809525333458	997.450729748245	1888.112365349572	494.5539647871403	955.0850800189171	1888.783861346972	532.4818831174861	995.5447809782877	1965.944772429962	508.3262117039399	940.8871965757228	1967.120121730998	545.7306720401289	979.2672910151891	2261.322409090093	597.00610300202	903.6545274488728	2205.235461907684	610.7852238516717	948.0115873304635	2270.941198167126	705.7171809373513	888.245574572644	2218.942374413429	719.1688182661547	931.6520275001683	2425.003552863991	1000.2859110065	1173.31831761504	2735.10984146788	153.7378102441479	1119.8920179972	2591.008928820105	31.1532424898086	1115.113114534765	2610.866136744995	53.51081078146575	1157.365195962743	2582.055114915607	79.72905998493778	1121.887055507555	2369.740196981849	1063.544948978304	1210.73984453109	2787.83981597566	128.1951695694248	1060.961959936928	2778.888584238678	99.16324047386362	1174.782499217366	2263.287309527705	1039.483074565922	1099.080774417038	2598.977744751169	182.0343443615517	1174.610486280605	2563.348801762603	181.337093667654	1137.101430813743	2574.403547338826	260.9530440432339	1193.72577436675	2536.82057299217	255.3744361463813	1156.00042832346	2482.716763544944	631.7130990878104	1222.444056496625	2428.607921460567	606.251952073266	1179.878063548045	2426.123097513401	724.1708942178356	1236.733839867884	2372.668782314847	700.5048169966442	1200.396548575675	
1131	7.533333333333334	2433.242751017211	975.1723373538737	934.3587861098679	1803.027865244728	591.6773732184761	1018.928799797235	1798.582806627344	561.8641214622364	980.5087323918424	1842.35201615271	562.5186812835954	1015.239318912643	2394.571283013052	1067.262648067735	902.4036152714351	1731.786701268365	382.3251929255588	1075.97980480259	1716.834577140146	408.7861680431041	965.0238632073142	2271.353274804826	1028.974839448813	997.1578071962798	1901.948270474673	504.3543240398624	956.0110889775148	1904.842388031472	541.8124857789753	996.6676413089461	1980.289248622694	514.0372823217674	941.3430419516152	1983.59590926702	550.9340725955752	979.8849707750758	2269.576851096152	590.4090411400934	902.1273062148426	2214.079720377362	602.0028406713119	947.9406711624425	2275.95599622233	699.4983270181812	887.9900734930933	2224.488482999373	710.9464239261424	932.5469873834231	2424.057379962614	997.3176060853652	1175.427150422265	2718.807111009341	141.8948794129204	1121.040871153065	2568.655094381577	28.20064610045266	1114.454268682445	2588.90628807815	49.44748759706393	1156.961518112742	2562.742430082934	76.97711114082314	1120.574455792229	2367.584792608375	1059.210728470455	1211.785559891891	2771.00938906115	113.149394376991	1063.572063275943	2758.392559337094	86.27956474194762	1177.464373623532	2262.779438677696	1033.697518752193	1098.764517298885	2584.247762844081	175.6556624423341	1174.384948007094	2548.675627416018	176.4512496439763	1136.983176968213	2562.876421417024	255.4328481965029	1193.595415354479	2525.12156867652	251.4039742614136	1155.967349268706	2481.627441197613	627.5472251334201	1222.012135101621	2427.189506065679	601.9245420364595	1180.027684766947	2425.317329055246	720.245112755762	1236.239415136456	2371.534318428202	696.4170802612443	1200.569810268225	
